<?xml version="1.0" encoding="UTF-8" standalone="no"?>
<!-- Created with Inkscape (http://www.inkscape.org/) -->

<svg
   xmlns:dc="http://purl.org/dc/elements/1.1/"
   xmlns:cc="http://creativecommons.org/ns#"
   xmlns:rdf="http://www.w3.org/1999/02/22-rdf-syntax-ns#"
   xmlns:svg="http://www.w3.org/2000/svg"
   xmlns="http://www.w3.org/2000/svg"
   xmlns:sodipodi="http://sodipodi.sourceforge.net/DTD/sodipodi-0.dtd"
   xmlns:inkscape="http://www.inkscape.org/namespaces/inkscape"
   width="924.87048mm"
   height="242.73862mm"
   viewBox="0 0 924.87048 242.73862"
   version="1.1"
   id="svg8"
   inkscape:version="0.92.3 (2405546, 2018-03-11)"
   sodipodi:docname="OPPO LOGO 2019.svg">
  <defs
     id="defs2" />
  <sodipodi:namedview
     id="base"
     pagecolor="#ffffff"
     bordercolor="#666666"
     borderopacity="1.0"
     inkscape:pageopacity="0.0"
     inkscape:pageshadow="2"
     inkscape:zoom="0.12374369"
     inkscape:cx="1580.4101"
     inkscape:cy="830.91581"
     inkscape:document-units="mm"
     inkscape:current-layer="layer1"
     showgrid="false"
     fit-margin-top="15"
     fit-margin-left="15"
     fit-margin-bottom="15"
     fit-margin-right="15"
     inkscape:window-width="1600"
     inkscape:window-height="837"
     inkscape:window-x="-8"
     inkscape:window-y="-8"
     inkscape:window-maximized="1" />
  <metadata
     id="metadata5">
    <rdf:RDF>
      <cc:Work
         rdf:about="">
        <dc:format>image/svg+xml</dc:format>
        <dc:type
           rdf:resource="http://purl.org/dc/dcmitype/StillImage" />
        <dc:title></dc:title>
      </cc:Work>
    </rdf:RDF>
  </metadata>
  <g
     inkscape:label="Layer 1"
     inkscape:groupmode="layer"
     id="layer1"
     transform="translate(383.56762,-22.063409)">
    <path
       style="fill:#006b33;fill-opacity:1;stroke-width:0.34794521"
       d="M -141.04201,147.15782 V 44.513976 h 16.00548 16.00548 v 6.78493 c 0,3.73171 0.057,6.78493 0.12661,6.78493 0.0696,0 2.09016,-1.22988 4.49005,-2.73308 28.310829,-17.73278 69.465599,-23.07253 106.3778589,-13.80231 33.2549601,8.35173 57.3626201,28.17746 65.9327901,54.22203 5.00808,15.219414 4.73192,32.144794 -0.76468,46.864054 -6.8374,18.30986 -20.89351,33.03113 -41.16759,43.11573 -17.7420001,8.82512 -37.99822,13.24421 -60.70874,13.24421 -18.82749,0 -36.38654,-3.13921 -51.84384,-9.26868 -6.13336,-2.43213 -13.995079,-6.42451 -18.764329,-9.52901 l -3.67813,-2.39424 v 35.99955 35.99956 h -16.00548 -16.00548 z m 121.780819,24.54843 c 18.0053599,-2.55399 31.97519,-8.26655 42.44931,-17.35844 7.9288,-6.88246 13.45062,-16.44108 15.5424,-26.90482 0.85549,-4.27947 0.85793,-14.38607 0.005,-18.65306 -2.46293,-12.314254 -9.5195,-23.071244 -20.08325,-30.614734 -4.25816,-3.04071 -12.9072401,-7.37261 -18.42805014,-9.22969 -15.59044986,-5.24428 -34.49281986,-6.7973 -51.80548986,-4.25634 -30.05909,4.41174 -50.375469,19.31956 -55.826349,40.964444 -2.40493,9.54972 -1.97548,19.8592 1.20259,28.86976 7.218869,20.46719 28.505259,34.08715 58.586779,37.48639 6.04764,0.68339 22.65294,0.50567 28.35754,-0.30351 z M 86.862089,147.15782 V 44.513976 h 16.005481 16.00548 v 6.78493 c 0,3.73171 0.0695,6.78493 0.15435,6.78493 0.0849,0 1.84637,-1.10302 3.91439,-2.45115 4.78511,-3.11938 14.23088,-7.78487 20.28743,-10.02041 26.14512,-9.65048 58.06788,-11.20682 86.00436,-4.193 45.53904,11.43315 72.35663,42.75649 69.82481,81.556344 -1.93259,29.61713 -21.63989,53.9452 -54.0552,66.72952 -10.57402,4.17029 -21.41032,6.80014 -34.97197,8.4873 -7.15755,0.89044 -26.44888,0.8891 -33.92118,-0.002 -21.14839,-2.52304 -39.71614,-8.80308 -54.19247,-18.32914 l -3.04452,-2.00342 v 35.97207 35.97207 H 102.86757 86.862089 V 147.15774 Z m 122.554971,24.39759 c 24.93741,-3.72412 42.51073,-13.77026 51.7446,-29.58086 5.36326,-9.18314 7.3716,-21.40023 5.38254,-32.74276 -4.13449,-23.576774 -24.85463,-39.891044 -56.57739,-44.546954 -20.93795,-3.07304 -44.57825,-0.0121 -60.64855,7.85283 -16.40461,8.02851 -26.27738,20.01608 -29.64758,35.998234 -0.88465,4.19525 -0.88204,14.98108 0.005,19.0934 2.3868,11.06975 7.78158,20.22863 15.96978,27.11227 11.27433,9.47811 25.94766,15.1218 44.98823,17.3035 6.29785,0.72162 22.52079,0.44563 28.78373,-0.48966 z m -482.67825,27.22698 c -16.98016,-1.4997 -31.47342,-4.84489 -43.79791,-10.10899 -28.0318,-11.97311 -45.73684,-32.18102 -50.54176,-57.68661 -0.91773,-4.87149 -1.26778,-15.84614 -0.6727,-21.09048 3.46973,-30.578634 25.99563,-54.799234 61.60963,-66.244764 18.95211,-6.09077 42.28089,-8.08041 63.22006,-5.39185 38.36332,4.9258 67.38255,22.71509 80.13747,49.12567 10.38538,21.504174 9.0675,47.625404 -3.41597,67.706544 -5.62388,9.04669 -14.88273,18.38223 -24.42375,24.6261 -14.8437,9.71404 -32.57284,15.75728 -54.10548,18.44265 -4.31311,0.5379 -24.00882,0.97509 -28.00959,0.62173 z m 22.70713,-26.74016 c 16.69832,-1.77214 30.74539,-6.53899 41.31479,-14.02011 8.64037,-6.11574 15.47767,-15.12918 18.54562,-24.44826 1.79578,-5.45475 2.15207,-8.01587 2.15207,-15.46947 0,-7.43167 -0.35109,-9.97151 -2.13295,-15.4301 -5.8566,-17.941214 -22.98679,-31.286604 -46.92228,-36.555134 -20.9856,-4.61923 -45.459,-3.01372 -63.59179,4.17175 -13.08154,5.18382 -23.40728,13.57522 -29.46258,23.94333 -6.43892,11.024954 -7.89969,26.041624 -3.79211,38.982604 4.42573,13.94329 16.08457,25.61272 32.12868,32.15786 8.73879,3.56497 19.55897,6.04888 30.27123,6.94916 4.11011,0.34543 17.19688,0.17392 21.48932,-0.28163 z m 660.3093,26.75214 c -0.66979,-0.0763 -3.01842,-0.30928 -5.21917,-0.51785 -17.6704,-1.67466 -36.24702,-7.25479 -49.86602,-14.97898 -18.41113,-10.44215 -31.235,-25.28375 -37.08894,-42.92466 -3.96173,-11.93878 -4.63817,-25.3557 -1.90065,-37.69926 4.13944,-18.664724 15.50124,-34.513894 33.14512,-46.235934 23.26776,-15.45833 57.4793,-22.32395 90.50501,-18.16268 27.43798,3.45722 50.04349,13.49246 65.773,29.1985 11.9791,11.96125 18.8662,25.97696 20.8569,42.445044 0.5173,4.27971 0.4368,12.93458 -0.1627,17.47555 -4.3169,32.70167 -30.23971,57.69503 -69.93981,67.43207 -12.03695,2.95223 -19.59269,3.84591 -33.75068,3.99197 -6.12384,0.0632 -11.68226,0.0525 -12.35206,-0.0238 z m 21.05069,-26.58924 c 21.136,-1.94441 38.36301,-8.90994 49.42217,-19.98324 7.48792,-7.49748 11.83428,-15.75096 13.54718,-25.72541 0.70587,-4.11048 0.69582,-12.67861 -0.0198,-16.94242 -3.85276,-22.952094 -24.0895,-39.588824 -54.07691,-44.456874 -7.19968,-1.16878 -11.98786,-1.54956 -19.48493,-1.54956 -33.62017,0 -59.70635,12.67652 -69.73921,33.88964 -2.99049,6.322944 -4.37034,12.848124 -4.37034,20.667124 0,10.31731 2.40462,18.49988 7.8326,26.65333 9.96452,14.96791 28.86209,24.53046 53.87371,27.26121 5.15878,0.56323 17.80509,0.66554 23.01557,0.1862 z"
       id="path1460"
       inkscape:connector-curvature="0" />
  </g>
</svg>
